<svg xmlns="http://www.w3.org/2000/svg" viewBox="0 0 1200 200">
  <defs>
    <linearGradient id="grad1" x1="0%" y1="0%" x2="100%" y2="0%">
      <stop offset="0%" stop-color="#667eea"/>
      <stop offset="100%" stop-color="#764ba2"/>
    </linearGradient>
    <linearGradient id="grad2" x1="0%" y1="0%" x2="100%" y2="0%">
      <stop offset="0%" stop-color="#f093fb"/>
      <stop offset="100%" stop-color="#f5576c"/>
    </linearGradient>
    <linearGradient id="grad3" x1="0%" y1="0%" x2="100%" y2="0%">
      <stop offset="0%" stop-color="#4facfe"/>
      <stop offset="100%" stop-color="#00f2fe"/>
    </linearGradient>
  </defs>
  
  <!-- Wave layers with blend modes -->
  <g style="mix-blend-mode: multiply;">
    <path fill="url(#grad1)" d="M0,80 C200,120 400,60 600,100 C800,140 1000,80 1200,120 L1200,200 L0,200 Z" opacity="0.7"/>
    <path fill="url(#grad2)" d="M0,100 C300,140 500,80 800,120 C1100,160 1200,100 1200,100 L1200,200 L0,200 Z" opacity="0.5"/>
    <path fill="url(#grad3)" d="M0,120 C400,160 600,100 1000,140 L1200,120 L1200,200 L0,200 Z" opacity="0.3"/>
  </g>
</svg>