<svg xmlns="http://www.w3.org/2000/svg" xmlns:xlink="http://www.w3.org/1999/xlink" viewBox="0 0 1300 550">
<defs>
  <!-- Gradient for sky -->
  <linearGradient id="skyGradient" x1="0%" y1="0%" x2="0%" y2="100%">
    <stop offset="0%" style="stop-color:#1A237E;stop-opacity:1" />
    <stop offset="100%" style="stop-color:#4FC3F7;stop-opacity:1" />
  </linearGradient>
  
  <!-- Wave filter for extra depth -->
  <filter id="waveBlur" x="-5%" y="-5%" width="110%" height="110%">
    <feGaussianBlur in="SourceGraphic" stdDeviation="3" />
  </filter>
  
  <!-- Shimmer effect for water highlights -->
  <radialGradient id="shimmer" cx="50%" cy="50%" r="50%" fx="50%" fy="50%">
    <stop offset="0%" style="stop-color:white;stop-opacity:0.6">
      <animate attributeName="stop-opacity" values="0.6;0.2;0.6" dur="4s" repeatCount="indefinite" />
    </stop>
    <stop offset="100%" style="stop-color:white;stop-opacity:0" />
  </radialGradient>
</defs>

<!-- Background -->
<rect x="0" y="0" width="1300" height="550" fill="url(#skyGradient)" />

<!-- Sun/Moon -->
<circle cx="1100" cy="100" r="60" fill="#FFEB3B">
  <animate attributeName="opacity" values="0.85;0.95;0.85" dur="5s" repeatCount="indefinite" />
</circle>

<!-- Light rays from sun -->
<g opacity="0.3">
  <path d="M1100,160 L1100,200" stroke="#FFEB3B" stroke-width="2">
    <animate attributeName="opacity" values="0.3;0.7;0.3" dur="3s" repeatCount="indefinite" />
  </path>
  <path d="M1040,100 L1000,100" stroke="#FFEB3B" stroke-width="2">
    <animate attributeName="opacity" values="0.3;0.7;0.3" dur="4s" repeatCount="indefinite" />
  </path>
  <path d="M1160,100 L1200,100" stroke="#FFEB3B" stroke-width="2">
    <animate attributeName="opacity" values="0.3;0.7;0.3" dur="3.5s" repeatCount="indefinite" />
  </path>
  <path d="M1060,60 L1030,30" stroke="#FFEB3B" stroke-width="2">
    <animate attributeName="opacity" values="0.3;0.7;0.3" dur="4.5s" repeatCount="indefinite" />
  </path>
  <path d="M1140,60 L1170,30" stroke="#FFEB3B" stroke-width="2">
    <animate attributeName="opacity" values="0.3;0.7;0.3" dur="3.8s" repeatCount="indefinite" />
  </path>
</g>

<!-- Distant hills or islands -->
<path d="M-50,270 C100,220 200,250 350,240 C500,230 600,260 750,240 C900,220 1000,230 1150,245 C1300,260 1400,230 1500,250 L1500,270 L-50,270 Z" fill="#0D47A1" opacity="0.5" />

<!-- Water shimmer highlights -->
<ellipse cx="850" cy="200" rx="30" ry="10" fill="url(#shimmer)" opacity="0.6">
  <animate attributeName="cx" values="850;870;850" dur="10s" repeatCount="indefinite" />
</ellipse>
<ellipse cx="400" cy="180" rx="25" ry="8" fill="url(#shimmer)" opacity="0.5">
  <animate attributeName="cx" values="400;420;400" dur="12s" repeatCount="indefinite" />
</ellipse>

<!-- First wave layer - furthest back -->
<path class="wave" d="M0,220 C200,280 400,180 600,230 C800,280 1000,200 1300,240 L1300,550 L0,550 Z" fill="#1E88E5" opacity="0.3">
  <animate 
    attributeName="d" 
    dur="8s"
    repeatCount="indefinite"
    values="M0,220 C200,280 400,180 600,230 C800,280 1000,200 1300,240 L1300,550 L0,550 Z;
            M0,240 C200,190 400,260 600,210 C800,160 1000,250 1300,220 L1300,550 L0,550 Z;
            M0,220 C200,280 400,180 600,230 C800,280 1000,200 1300,240 L1300,550 L0,550 Z"
  />
</path>

<!-- Second wave layer -->
<path class="wave" d="M0,260 C250,230 350,300 600,270 C850,240 1050,310 1300,280 L1300,550 L0,550 Z" fill="#0D47A1" opacity="0.4" filter="url(#waveBlur)">
  <animate 
    attributeName="d" 
    dur="6s"
    repeatCount="indefinite"
    values="M0,260 C250,230 350,300 600,270 C850,240 1050,310 1300,280 L1300,550 L0,550 Z;
            M0,280 C250,320 350,250 600,290 C850,330 1050,270 1300,300 L1300,550 L0,550 Z;
            M0,260 C250,230 350,300 600,270 C850,240 1050,310 1300,280 L1300,550 L0,550 Z"
  />
</path>

<!-- Third wave layer -->
<path class="wave" d="M0,300 C150,350 300,280 500,310 C700,340 900,290 1300,320 L1300,550 L0,550 Z" fill="#0277BD" opacity="0.5">
  <animate 
    attributeName="d" 
    dur="7s"
    repeatCount="indefinite"
    values="M0,300 C150,350 300,280 500,310 C700,340 900,290 1300,320 L1300,550 L0,550 Z;
            M0,320 C150,270 300,330 500,300 C700,270 900,340 1300,300 L1300,550 L0,550 Z;
            M0,300 C150,350 300,280 500,310 C700,340 900,290 1300,320 L1300,550 L0,550 Z"
  />
</path>

<!-- Fourth wave layer - foreground -->
<path class="wave" d="M0,340 C200,380 400,320 600,350 C800,380 1000,330 1300,360 L1300,550 L0,550 Z" fill="#01579B" opacity="0.6">
  <animate 
    attributeName="d" 
    dur="5s"
    repeatCount="indefinite"
    values="M0,340 C200,380 400,320 600,350 C800,380 1000,330 1300,360 L1300,550 L0,550 Z;
            M0,360 C200,310 400,370 600,330 C800,300 1000,370 1300,340 L1300,550 L0,550 Z;
            M0,340 C200,380 400,320 600,350 C800,380 1000,330 1300,360 L1300,550 L0,550 Z"
  />
</path>

<!-- Small boat -->
<g transform="translate(200, 330)" opacity="0.8">
  <path d="M0,0 L30,0 L25,10 L5,10 Z" fill="#795548" />
  <rect x="12" y="-25" width="2" height="25" fill="#795548" />
  <path d="M14,-25 Q24,-20 14,-15 Z" fill="#ECEFF1" >
    <animate attributeName="d" 
      values="M14,-25 Q24,-20 14,-15 Z; M14,-25 Q22,-23 14,-15 Z; M14,-25 Q24,-20 14,-15 Z" 
      dur="3s" repeatCount="indefinite" />
  </path>
  
  <animateTransform
    attributeName="transform"
    type="translate"
    from="200, 325"
    to="1100, 340"
    dur="40s"
    repeatCount="indefinite" />
    
  <animateTransform
    attributeName="transform"
    type="rotate"
    additive="sum"
    values="0; 5; 0; -5; 0"
    dur="5s"
    repeatCount="indefinite" />
</g>

<!-- Floating particles -->
<circle cx="300" cy="450" r="2" fill="white" opacity="0.6">
  <animate attributeName="cy" values="450;440;450" dur="4s" repeatCount="indefinite" />
  <animate attributeName="cx" values="300;305;300" dur="4s" repeatCount="indefinite" />
</circle>

<circle cx="700" cy="420" r="1" fill="white" opacity="0.5">
  <animate attributeName="cy" values="420;410;420" dur="5s" repeatCount="indefinite" />
  <animate attributeName="cx" values="700;705;700" dur="5s" repeatCount="indefinite" />
</circle>

<circle cx="1000" cy="480" r="1.5" fill="white" opacity="0.5">
  <animate attributeName="cy" values="480;470;480" dur="3.5s" repeatCount="indefinite" />
  <animate attributeName="cx" values="1000;1007;1000" dur="3.5s" repeatCount="indefinite" />
</circle>
</svg>
